<?xml version="1.0" encoding="utf-8"?>
<!-- Generator: Adobe Illustrator 28.1.0, SVG Export Plug-In . SVG Version: 6.00 Build 0)  -->
<svg version="1.1" id="Layer_1" xmlns="http://www.w3.org/2000/svg" xmlns:xlink="http://www.w3.org/1999/xlink" x="0px" y="0px"
	 viewBox="0 0 53 56" style="enable-background:new 0 0 53 56;" xml:space="preserve">
<style type="text/css">
	.st0{fill:#8DA5F3;}
</style>
<path class="st0" d="M15.6,13c-1.8,0-3.3,1.4-3.3,3.3c0,1.8,1.5,3.3,3.3,3.3c3.4,0,10.3,0,13.7,0c1.2,0,2.1,0.3,2.8,1
	c0.7,0.6,1,1.4,1,2.5c0,1-0.3,1.6-1,2.2s-1.5,0.9-2.8,0.9c-1.5,0-4.5,0-5.9,0c-1.8,0-3.3,1.4-3.3,3.3c0,1.8,1.5,3.3,3.3,3.3
	c1.4,0,3.9,0,5.7,0c1.6,2.5,4.1,6.5,5.4,8.6c0.6,1,1.7,1.6,2.9,1.6s2.4-0.6,3-1.7l0,0c0.6-1.2,0.4-2.5-0.2-3.5c-1.1-1.7-3-4.8-4.4-7
	c1-0.7,1.8-1.4,2.5-2.4l0,0c1-1.5,1.5-3.3,1.5-5.2s-0.5-3.7-1.4-5.2l0,0c-0.9-1.5-2.1-2.7-3.7-3.5l0,0c-1.7-1-3.5-1.5-5.5-1.5
	C25.8,13,19,13,15.6,13z"/>
<path class="st0" d="M15.6,13c-1.8,0-3.3,1.4-3.3,3.3c0,1.8,1.5,3.3,3.3,3.3c3.4,0,10.3,0,13.7,0c1.2,0,2.1,0.3,2.8,1
	c0.7,0.6,1,1.4,1,2.5c0,1-0.3,1.6-1,2.2s-1.5,0.9-2.8,0.9c-1.5,0-4.5,0-5.9,0c-1.8,0-3.3,1.4-3.3,3.3c0,1.8,1.5,3.3,3.3,3.3
	c1.4,0,3.9,0,5.7,0c1.6,2.5,4.1,6.5,5.4,8.6c0.6,1,1.7,1.6,2.9,1.6s2.4-0.6,3-1.7l0,0c0.6-1.2,0.4-2.5-0.2-3.5c-1.1-1.7-3-4.8-4.4-7
	c1-0.7,1.8-1.4,2.5-2.4l0,0c1-1.5,1.5-3.3,1.5-5.2s-0.5-3.7-1.4-5.2l0,0c-0.9-1.5-2.1-2.7-3.7-3.5l0,0c-1.7-1-3.5-1.5-5.5-1.5
	C25.8,13,19,13,15.6,13z"/>
<path class="st0" d="M26.5,1.6c-4.8,0-10.4,2.3-13.2,2.3S5.6,1.6,4.1,1.6C1.8,1.6,0,3.4,0,5.7c0,1.5,2.3,4.1,2.3,6.1
	C2.3,18.1,0,16.7,0,28s2.3,9.9,2.3,16.2c0,2.1-2.3,4.6-2.3,6.1c0,2.3,1.8,4.1,4.1,4.1c1.5,0,6.4-2.3,9.2-2.3s7.8,2.3,13.2,2.3
	s10.4-2.3,13.2-2.3s7.7,2.3,9.2,2.3c2.3,0,4.1-1.8,4.1-4.1c0-1.5-2.3-4.1-2.3-6.1C50.7,38,53,39.4,53,28s-2.3-9.9-2.3-16.2
	c0-2.1,2.3-4.6,2.3-6.1c0-2.3-1.8-4.1-4.1-4.1c-1.5,0-6.4,2.3-9.2,2.3S31.3,1.6,26.5,1.6z M8.5,8.3h18h18c1,0,1.8,0.8,1.8,1.8V28
	v17.9c0,1-0.8,1.8-1.8,1.8h-18h-18c-1,0-1.8-0.8-1.8-1.8V28V10.1C6.7,9.1,7.5,8.3,8.5,8.3z"/>
</svg>
